<svg width="240" height="240" xmlns="http://www.w3.org/2000/svg">
 <g>
  <g stroke="null" id="svg_2">
   <path stroke="null" d="m97.6391,170.97498q0,4.48843 -3.17522,7.66418q-3.17522,3.17574 -7.66285,3.17574q-4.48771,0 -7.66296,-3.17574q-3.17523,-3.17575 -3.17523,-7.66418q0,-4.48839 3.17523,-7.66414q3.17525,-3.1758 7.66296,-3.1758q4.48763,0 7.66285,3.1758q3.17522,3.17575 3.17522,7.66414zm75.86697,0q0,4.48843 -3.17522,7.66418q-3.17522,3.17574 -7.66292,3.17574q-4.48764,0 -7.66287,-3.17574q-3.17528,-3.17575 -3.17528,-7.66418q0,-4.48839 3.17528,-7.66414q3.17522,-3.1758 7.66287,-3.1758q4.4877,0 7.66292,3.1758q3.17522,3.17575 3.17522,7.66414zm10.83815,-92.13932l0,43.35969q0,2.03247 -1.35478,3.5992q-1.35472,1.56671 -3.47157,1.82076l-88.39859,10.33182q0.08471,0.59282 0.38105,1.82079q0.29636,1.22797 0.50803,2.24419q0.21168,1.01624 0.21168,1.86311q0,1.355 -2.03217,5.41994l77.89917,0q2.20146,0 3.81029,1.6091q1.60875,1.60901 1.60875,3.81088q0,2.20184 -1.60875,3.8109q-1.60883,1.60905 -3.81029,1.60905l-86.70511,0q-2.20151,0 -3.81029,-1.60905q-1.6088,-1.60905 -1.6088,-3.8109q0,-1.18564 0.93143,-3.34515q0.93136,-2.15948 2.49783,-5.03886q1.56645,-2.87935 1.73577,-3.21812l-14.98706,-69.6973l-17.27331,0q-2.20152,0 -3.81027,-1.60902q-1.60882,-1.60904 -1.60882,-3.81092q0,-2.20187 1.60882,-3.81091q1.60876,-1.60908 3.81027,-1.60908l21.67629,0q1.35477,0 2.41314,0.55048q1.05843,0.55048 1.69347,1.31263q0.63506,0.7622 1.10074,2.07483q0.46573,1.31264 0.63506,2.2442q0.16936,0.93156 0.46571,2.49827q0.29636,1.56672 0.38103,2.15952l101.69223,0q2.20148,0 3.81027,1.60908q1.60878,1.60903 1.60878,3.81091l0,-0.00002z" id="svg_1" fill="#fff"/>
  </g>
 </g>
</svg>